<?xml version="1.0" encoding="UTF-8" standalone="no"?>
<svg width="529px" height="227px" viewBox="0 0 529 227" version="1.1" xmlns="http://www.w3.org/2000/svg" xmlns:xlink="http://www.w3.org/1999/xlink">
    <!-- Generator: Sketch 3.8.3 (29802) - http://www.bohemiancoding.com/sketch -->
    <title>familiar-meeting-on-table-gr</title>
    <desc>Created with Sketch.</desc>
    <defs></defs>
    <g id="Page-1" stroke="none" stroke-width="1" fill="none" fill-rule="evenodd">
        <g id="familiar-meeting-on-table-gr" transform="translate(-1.000000, 0.000000)" fill="#006361">
            <g id="Group">
                <circle id="Oval" cx="94.098" cy="30.994" r="27.076"></circle>
                <circle id="Oval" cx="416.345" cy="27.265" r="27.076"></circle>
                <path d="M312.85,226.284 L322.412,226.284 C327.695,226.284 331.974,222 331.974,216.722 L331.974,151.056 L372.347,151.056 C378.076,151.056 382.048,145.969 382.048,139.796 L382.048,132.342 C382.048,126.17 378.075,121.909 372.347,121.909 L337.908,121.909 C334.576,101.46 316.881,85.835 295.489,85.835 C274.097,85.835 256.402,101.46 253.07,121.909 L247.567,121.909 C246.443,104.444 231.956,90.616 214.208,90.616 C196.46,90.616 181.973,104.444 180.849,121.909 L139.032,121.909 C133.304,121.909 128.365,126.17 128.365,132.342 L128.365,139.796 C128.365,145.974 133.304,151.056 139.032,151.056 L174.762,151.056 L174.762,216.717 C174.762,221.995 179.041,226.279 184.324,226.279 L193.886,226.279 C199.169,226.279 203.448,221.995 203.448,216.717 L203.448,181.455 L303.285,181.455 L303.285,216.717 C303.287,222 307.571,226.284 312.85,226.284 L312.85,226.284 Z M203.45,171.897 L203.45,151.055 L303.287,151.055 L303.287,171.892 L203.45,171.892 L203.45,171.897 L203.45,171.897 Z" id="Shape"></path>
                <path d="M81.237,173.303 C81.237,168.025 76.953,163.741 71.675,163.741 L29.245,163.741 L20.041,94.648 C19.343,89.412 14.528,85.764 9.302,86.429 C4.062,87.127 0.39,91.932 1.083,97.168 L11.391,174.567 C12.022,179.32 16.072,182.867 20.868,182.867 L71.669,182.867 C76.958,182.865 81.237,178.587 81.237,173.303 L81.237,173.303 Z" id="Shape"></path>
                <path d="M458.803,182.865 L509.604,182.865 C514.399,182.865 518.454,179.318 519.081,174.565 L529.389,97.166 C530.087,91.931 526.41,87.121 521.17,86.427 C516.04,85.753 511.13,89.401 510.432,94.646 L501.228,163.739 L458.799,163.739 C453.521,163.739 449.237,168.023 449.237,173.301 C449.235,178.582 453.52,182.865 458.803,182.865 L458.803,182.865 Z" id="Shape"></path>
                <path d="M101.858,211.854 C101.858,218.457 107.208,223.807 113.811,223.807 C120.414,223.807 125.764,218.456 125.764,211.854 L125.764,169.42 C125.764,165.504 123.842,161.827 120.624,159.595 L108.092,150.903 C108.293,150.129 108.436,149.335 108.436,148.498 L108.436,104.979 L114.135,111.854 C116.406,114.618 119.796,116.224 123.377,116.224 L149.97,116.224 C156.573,116.224 161.923,110.874 161.923,104.271 C161.923,97.668 156.573,92.318 149.97,92.318 L129.03,92.318 L109.322,68.603 C106.807,65.533 103.082,64.075 99.401,64.281 C99.224,64.271 99.052,64.228 98.871,64.228 L64.502,64.228 C59.223,64.228 54.94,68.507 54.94,73.79 L47.17,148.497 C47.17,153.775 51.454,158.059 56.732,158.059 L76.45,158.059 L101.853,175.673 L101.853,211.853 L101.858,211.853 L101.858,211.854 Z" id="Shape"></path>
                <path d="M403.173,169.383 L403.173,211.817 C403.173,218.42 408.523,223.77 415.126,223.77 C421.729,223.77 427.079,218.419 427.079,211.817 L427.079,175.642 L450.206,158.028 L481.269,158.028 C489.354,158.028 491.716,150.693 489.722,145.778 L460.074,73.763 C457.984,67.844 454.37,64.201 450.512,64.201 L414.131,64.201 C411.793,64.201 409.68,65.071 408.016,66.468 C407.18,67.066 406.381,67.739 405.698,68.576 L385.989,92.291 L365.048,92.291 C358.445,92.291 353.095,97.641 353.095,104.244 C353.095,110.847 358.446,116.198 365.048,116.198 L391.642,116.198 C395.223,116.198 398.613,114.592 400.884,111.827 L404.909,106.97 L385.994,146.793 C381.328,153.587 385.512,158.029 389.991,158.029 L410.345,158.029 L408.313,159.558 C405.1,161.79 403.173,165.467 403.173,169.383 L403.173,169.383 Z" id="Shape"></path>
                <circle id="Oval" cx="214.208" cy="66.71" r="19.125"></circle>
                <circle id="Oval" cx="293.878" cy="50.755" r="27.076"></circle>
            </g>
        </g>
    </g>
</svg>